<?xml version="1.0" encoding="UTF-8" standalone="no"?>
<!DOCTYPE svg PUBLIC "-//W3C//DTD SVG 1.1//EN" "http://www.w3.org/Graphics/SVG/1.1/DTD/svg11.dtd">
<svg width="100%" height="100%" viewBox="0 0 16 16" version="1.1" xmlns="http://www.w3.org/2000/svg" xmlns:xlink="http://www.w3.org/1999/xlink" xml:space="preserve" xmlns:serif="http://www.serif.com/" style="fill-rule:evenodd;clip-rule:evenodd;stroke-linejoin:round;stroke-miterlimit:2;">
    <rect id="blank" x="0" y="0" width="16" height="16" style="fill:none;"/>
    <clipPath id="_clip1">
        <rect id="blank1" serif:id="blank" x="0" y="0" width="16" height="16"/>
    </clipPath>
    <g clip-path="url(#_clip1)">
        <path d="M0,2L2,0L14,0L16,2L16,14L14,16L2,16L0,14L0,2ZM2.414,1L1,2.414L1,13.586L2.414,15L13.586,15L15,13.586L15,2.414L13.586,1L2.414,1Z"/>
        <rect x="3" y="3" width="1" height="1"/>
        <g transform="matrix(1,0,0,1,0,9)">
            <rect x="3" y="3" width="1" height="1"/>
        </g>
        <g transform="matrix(1,0,0,1,9,0)">
            <rect x="3" y="3" width="1" height="1"/>
        </g>
        <g transform="matrix(1,0,0,1,9,9)">
            <rect x="3" y="3" width="1" height="1"/>
        </g>
    </g>
</svg>
