<?xml version="1.0" encoding="UTF-8" standalone="no"?>
<!DOCTYPE svg PUBLIC "-//W3C//DTD SVG 1.1//EN" "http://www.w3.org/Graphics/SVG/1.1/DTD/svg11.dtd">
<svg width="100%" height="100%" viewBox="0 0 16 16" version="1.1" xmlns="http://www.w3.org/2000/svg" xmlns:xlink="http://www.w3.org/1999/xlink" xml:space="preserve" xmlns:serif="http://www.serif.com/" style="fill-rule:evenodd;clip-rule:evenodd;stroke-linecap:round;stroke-miterlimit:3;">
    <g transform="matrix(1,0,0,1,-64,0)">
        <g id="color" transform="matrix(1,0,0,1,64,0)">
            <rect x="0" y="0" width="16" height="16" style="fill:none;"/>
            <clipPath id="_clip1">
                <rect x="0" y="0" width="16" height="16"/>
            </clipPath>
            <g clip-path="url(#_clip1)">
                <g transform="matrix(1.14286,0,0,1.14286,-74.2857,-1.14286)">
                    <path d="M72,1C75.863,1 79,4.137 79,8C79,11.863 75.863,15 72,15C68.137,15 65,11.863 65,8C65,4.137 68.137,1 72,1ZM72,2.75C74.898,2.75 77.25,5.102 77.25,8C77.25,10.898 74.898,13.25 72,13.25C69.102,13.25 66.75,10.898 66.75,8C66.75,5.102 69.102,2.75 72,2.75Z"/>
                </g>
                <g transform="matrix(6.12323e-17,1,-1,6.12323e-17,16,-64)">
                    <path d="M72,1L72,15" style="fill:none;stroke:black;stroke-width:2px;"/>
                </g>
                <g transform="matrix(0.866025,0.5,-0.5,0.866025,-50.3538,-34.9282)">
                    <path d="M72,1L72,15" style="fill:none;stroke:black;stroke-width:2px;"/>
                </g>
                <g transform="matrix(0.866025,-0.5,0.5,0.866025,-58.3538,37.0718)">
                    <path d="M72,1L72,15" style="fill:none;stroke:black;stroke-width:2px;"/>
                </g>
            </g>
        </g>
    </g>
</svg>
