<?xml version="1.0" encoding="UTF-8" standalone="no"?>
<!DOCTYPE svg PUBLIC "-//W3C//DTD SVG 1.1//EN" "http://www.w3.org/Graphics/SVG/1.1/DTD/svg11.dtd">
<svg width="100%" height="100%" viewBox="0 0 16 16" version="1.1" xmlns="http://www.w3.org/2000/svg" xmlns:xlink="http://www.w3.org/1999/xlink" xml:space="preserve" xmlns:serif="http://www.serif.com/" style="fill-rule:evenodd;clip-rule:evenodd;stroke-miterlimit:3;">
    <g transform="matrix(1,0,0,1,-192,0)">
        <g id="font" transform="matrix(1,0,0,1,192,1.06581e-14)">
            <rect x="0" y="0" width="16" height="16" style="fill:none;"/>
            <clipPath id="_clip1">
                <rect x="0" y="0" width="16" height="16"/>
            </clipPath>
            <g clip-path="url(#_clip1)">
                <g transform="matrix(1,0,0,1,-193,-1.06581e-14)">
                    <path d="M207,2L198.998,2C198.203,2 197.44,2.316 196.878,2.878C196.316,3.44 196,4.203 196,4.998C196,4.999 196,5 196,5" style="fill:none;stroke:black;stroke-width:2px;"/>
                </g>
                <g transform="matrix(1,0,0,1,-193,-1.06581e-14)">
                    <path d="M200,2L200,10C200,11.061 199.579,12.078 198.828,12.828C198.078,13.579 197.061,14 196,14C196,14 196,14 196,14" style="fill:none;stroke:black;stroke-width:2px;"/>
                </g>
                <g transform="matrix(1,0,0,1,-193,-1.06581e-14)">
                    <path d="M200,8L206,8" style="fill:none;stroke:black;stroke-width:2px;"/>
                </g>
            </g>
        </g>
    </g>
</svg>
