<?xml version="1.0" encoding="UTF-8" standalone="no"?>
<!DOCTYPE svg PUBLIC "-//W3C//DTD SVG 1.1//EN" "http://www.w3.org/Graphics/SVG/1.1/DTD/svg11.dtd">
<svg width="100%" height="100%" viewBox="0 0 16 16" version="1.1" xmlns="http://www.w3.org/2000/svg" xmlns:xlink="http://www.w3.org/1999/xlink" xml:space="preserve" xmlns:serif="http://www.serif.com/" style="fill-rule:evenodd;clip-rule:evenodd;stroke-linejoin:round;stroke-miterlimit:2;">
    <g transform="matrix(1,0,0,1,-112,0)">
        <g id="time" transform="matrix(1,0,0,1,112,0)">
            <rect x="0" y="0" width="16" height="16" style="fill:none;"/>
            <g transform="matrix(1,0,0,1,-112,0)">
                <path d="M120,0C124.415,0 128,3.585 128,8C128,12.415 124.415,16 120,16C115.585,16 112,12.415 112,8C112,3.585 115.585,0 120,0ZM120,2C123.311,2 126,4.689 126,8C126,11.311 123.311,14 120,14C116.689,14 114,11.311 114,8C114,4.689 116.689,2 120,2Z"/>
            </g>
            <g transform="matrix(1,0,0,1,-112,0)">
                <rect x="119" y="4" width="2" height="5"/>
            </g>
            <g transform="matrix(1.5,0,0,1,-173.5,0)">
                <rect x="121" y="7" width="2" height="2"/>
            </g>
        </g>
    </g>
</svg>
